# xmcd CD database file
#
# Track frame offsets:
#	150
#	10869
#	31263
#	47027
#	59272
#	70950
#	82423
#	106950
#	124397
#	148089
#	162983
#
# Disc length: 2535 seconds
#
# Revision: 0
# Processed by: cddbd v1.5.2PL0 Copyright (c) Steve Scherf et al.
# Submitted via: CDex 1.70beta2
#
DISCID=9d09e50b
DTITLE=New Orleans Feetwarmers - Live im Jazzclub Hannover
DYEAR=2001
DGENRE=Jazz
TTITLE0=Copenhagen
TTITLE1=Sobbin' The Blues
TTITLE2=Isle Of Capri
TTITLE3=Heebie Jeebies
TTITLE4=Mabel's Dream
TTITLE5=Skit Dat-De-Dat
TTITLE6=St. Louis Blues
TTITLE7=Canal Street Blues
TTITLE8=Some Of These Days
TTITLE9=In The Summertime
TTITLE10=Royal Garden Blues
EXTD=YEAR: 2001
EXTT0=
EXTT1=
EXTT2=
EXTT3=
EXTT4=
EXTT5=
EXTT6=
EXTT7=
EXTT8=
EXTT9=
EXTT10=
PLAYORDER=
